# xmcd
#
# Track frame offsets: 
#        150
#        12890
#        28952
#        43605
#        60530
#        84150
#        109500
#        128950
#
# Disc length: 1871 seconds
#
# Revision: 2
# Processed by: cddbd v1.5.1PL2 Copyright (c) Steve Scherf et al.
# Submitted via: ExactAudioCopy v0.95b4
#
DISCID=5c074d08
DTITLE=Nina Nastasia - Run to ruin
DYEAR=2003
DGENRE=Americana
TTITLE0=We Never Talked
TTITLE1=I Say That I Will Go
TTITLE2=Regrets
TTITLE3=You, Her and Me
TTITLE4=Superstar
TTITLE5=The Body
TTITLE6=On Teasing
TTITLE7=While We Talk
EXTD=
EXTT0=
EXTT1=
EXTT2=
EXTT3=
EXTT4=
EXTT5=
EXTT6=
EXTT7=
PLAYORDER=
